<svg width="120" height="96" viewBox="0 0 120 96" fill="none" xmlns="http://www.w3.org/2000/svg">
<g id="LOGO">
<g clip-path="url(#clip0_1668_1370)">
<g id="BACKGROUND">
<path id="Vector" d="M120 0H0V96H120V0Z" fill="#A60000"/>
</g>
<g id="OBJECTS">
<g id="Group">
<g id="Group_2">
<path id="Vector_2" d="M83.664 44.7552C88.584 43.2384 93.384 41.5296 98.112 39.7248C92.04 40.6848 86.016 41.8176 80.088 43.2C71.136 45.3696 62.4 48.0576 53.784 50.8992C53.496 50.9952 53.208 51.0912 52.92 51.1872C54.792 50.5152 56.664 49.8432 58.536 49.2096C65.376 46.944 73.512 44.544 80.808 42.3168C82.776 41.7408 84.768 41.184 86.784 40.704C88.824 40.2048 90.912 39.7632 92.904 39.1488C90.312 39.5904 87.648 39.8784 85.056 40.32C81.984 40.8192 78.936 41.4528 75.888 42.1248C69.984 43.4688 64.248 45.2352 58.536 47.0016C52.296 49.0368 46.08 51.1488 40.152 53.664C36.528 55.2192 33.048 56.9856 29.64 58.8096C28.176 59.5968 26.736 60.4032 25.296 61.2288C25.584 61.1136 25.896 61.0176 26.184 60.9024C28.8 59.9616 31.416 59.04 34.008 58.08C34.152 58.0224 34.296 57.984 34.44 57.9264C30.288 59.7888 26.376 61.9584 22.776 64.3968C21.864 65.0112 21 65.6448 20.136 66.2976C21.816 65.568 23.544 64.8576 25.272 64.1472C31.032 61.824 36.96 59.712 42.792 57.4848C44.208 56.9856 45.6 56.4864 46.992 56.0064C41.04 58.2528 35.16 60.5952 29.448 63.168C34.056 61.6704 38.736 60.3072 43.32 58.7712C50.88 56.2176 58.368 53.6256 64.032 51.8784C66.528 51.1296 70.248 49.92 71.184 49.632C77.64 47.8464 84.144 46.08 90.288 43.7376C91.368 43.3344 92.448 42.8928 93.528 42.4704C92.784 42.6624 92.016 42.8352 91.248 43.008C88.704 43.6032 86.184 44.1792 83.664 44.7552Z" fill="#F7F6F6"/>
<g id="Group_3">
<path id="Vector_3" d="M80.208 62.4192C82.512 65.9712 85.272 69.3504 88.032 72.7296C88.536 73.3824 88.992 74.0352 89.472 74.688C89.064 73.8432 88.632 72.9984 88.272 72.1536C85.224 64.224 80.928 57.8304 77.328 50.6688C74.664 45.5424 72.336 40.3008 69.72 35.1552C69.672 35.0784 69.648 35.0016 69.6 34.9056C68.088 31.584 66.408 28.32 64.584 25.0944C63.024 22.3104 61.2 19.6224 59.664 16.8192C60.216 19.8528 61.224 22.8288 62.256 25.7856C62.304 25.9776 62.376 26.1504 62.424 26.3424C62.208 25.8624 61.992 25.4016 61.752 24.9216C61.584 24.576 61.416 24.2496 61.272 23.904C61.272 23.8656 61.296 23.8464 61.296 23.808C61.272 23.8272 61.272 23.8464 61.248 23.8656C59.208 19.7376 57.24 16.3008 55.128 12.4032C55.824 14.9376 56.256 17.5104 57.024 20.0448C57.36 21.2736 57.744 22.5024 58.152 23.7312C58.152 23.712 58.128 23.712 58.128 23.6928C58.008 23.52 57.912 23.328 57.792 23.1552C56.376 20.928 55.152 18.6432 53.592 16.4928C54.504 19.5264 55.104 22.6368 56.352 25.6128C56.688 27.0912 57.072 28.5696 57.48 30.0288C57.24 30.4512 56.976 30.8736 56.736 31.296C52.704 37.9968 49.848 45.0624 46.944 52.0896C45.024 56.8128 43.056 61.5168 41.496 66.336C40.008 71.0208 38.952 75.7632 38.04 80.5248C40.008 76.608 41.808 72.6336 43.584 68.6784C42.912 71.3088 42.24 73.9392 41.448 76.5504C43.344 72.6528 45.072 68.7168 46.776 64.7616C47.328 63.3984 47.88 62.0352 48.408 60.6912C47.52 63.7632 46.776 66.8544 45.912 69.9264C48.912 63.4368 51.648 56.8512 54.696 50.3808C55.872 47.8464 57.168 45.3312 58.416 42.7968C59.064 41.4528 59.688 40.0896 60.288 38.7456C61.488 41.9136 62.904 45.0432 64.248 48.192C66.048 52.2432 67.728 56.3136 70.032 60.2112C71.256 62.2848 72.576 64.32 74.04 66.2976C75.096 67.6992 76.248 69.0816 77.28 70.5024C77.664 71.0208 78.048 71.5392 78.432 72.0576C78.168 71.4816 77.88 70.9056 77.616 70.3296C76.704 68.2944 75.936 66.2208 75.096 64.1664C76.776 66.9312 78.576 69.6384 80.4 72.3456C80.64 72.7104 80.904 73.0752 81.168 73.44C80.688 72.096 80.208 70.7328 79.728 69.3888C79.584 69.0048 79.44 68.6016 79.296 68.2176C81.192 71.424 83.304 74.5728 85.728 77.568C86.424 78.4512 87.192 79.296 87.936 80.16C87.384 78.9312 86.832 77.6832 86.28 76.4544C84.84 73.1712 83.496 69.8688 81.912 66.6432C78.816 60.6144 75.432 54.6816 72.528 48.5952C72.36 48.2496 72.192 47.904 72.024 47.5584C72.288 48.0192 72.576 48.4992 72.84 48.9984C75.12 53.4912 77.424 58.0416 80.208 62.4192ZM58.248 33.7536C58.32 33.5808 58.368 33.4272 58.416 33.2544C58.44 33.2928 58.44 33.3504 58.464 33.3888C58.392 33.5232 58.32 33.6384 58.248 33.7536ZM58.92 37.0176C59.064 36.6912 59.208 36.3648 59.352 36.0576C59.376 36.096 59.376 36.1344 59.4 36.1728C59.208 36.48 59.04 36.768 58.92 37.0176Z" fill="#F7F6F6"/>
<path id="Vector_4" d="M50.304 38.2464C47.76 42.7584 45.72 47.4432 43.728 52.1088C42.12 55.9296 40.416 59.7504 38.88 63.5904C37.296 68.0448 35.856 72.5376 34.92 77.1072C34.824 77.6256 34.752 78.1248 34.656 78.6432C34.776 78.432 34.872 78.2208 34.992 78.0096C37.008 74.3808 39.12 70.5792 40.848 66.6816C42.024 64.1664 42.84 61.5744 43.728 59.0016C44.856 55.8912 45.96 52.8 47.184 49.7088C49.08 45.1968 51.072 40.704 53.016 36.2112C54.24 33.3888 55.728 30.6048 56.712 27.7056C54.768 31.2768 52.2 34.6368 50.304 38.2464Z" fill="#F7F6F6"/>
</g>
</g>
<g id="Group_4">
<g id="Group_5">
<path id="Vector_5" d="M30.2427 39.6288C30.1933 39.6864 30.1686 39.7632 30.1439 39.7824C30.1686 39.7248 30.1933 39.6864 30.2427 39.6288Z" fill="#F7F6F6"/>
<path id="Vector_6" d="M52.3679 26.208C53.0639 25.8816 53.7839 25.5744 54.5279 25.3248C54.1439 25.3248 53.7599 25.344 53.3759 25.3824C50.5679 25.632 47.9279 26.4384 45.3839 27.3408C42.3359 28.512 41.4479 28.9728 39.3839 30.2208C37.3199 31.4688 35.5199 32.9472 33.9359 34.5408C31.7039 36.8448 31.4399 37.3056 30.2159 39.6288C30.2399 39.5904 30.2639 39.552 30.2879 39.5328C29.3519 41.2416 28.7039 43.0272 28.2959 44.8512C27.4319 48.096 27.0959 53.2416 29.2799 57.12C27.8399 53.6064 28.9199 49.1136 30.6239 45.6576C30.6239 45.6384 30.6479 45.6384 30.6479 45.6192C30.7199 45.4848 31.0559 44.928 31.1519 44.7744C31.6079 44.0448 32.1119 43.3344 32.6399 42.624C32.9519 42.2208 33.2879 41.8368 33.5999 41.4336C32.2079 43.584 31.1999 45.8688 30.7199 48.2112C30.3119 50.2848 30.0959 52.4352 30.7919 54.4896C30.3119 52.4736 30.7919 50.5728 31.3679 48.6336C32.4239 45.3696 33.8879 43.104 36.2639 40.1472C38.0399 37.92 39.5759 36.4608 41.6879 34.5408C43.9439 32.448 46.5119 30.5472 49.3199 28.8768C47.6879 29.568 46.1279 30.336 44.6399 31.1808C47.3279 29.1648 50.1839 27.2448 52.3679 26.208Z" fill="#F7F6F6"/>
</g>
<path id="Vector_7" d="M44.52 32.6208C42.696 33.4464 39.84 35.2896 39.024 36.0576C36.84 38.0544 35.208 40.3968 34.176 42.8544C32.76 46.368 31.968 50.112 32.64 53.7792C32.592 51.936 32.928 50.3232 33.432 48.5376C33.888 47.0208 34.44 45.5232 35.256 44.1024C35.928 42.8352 37.776 40.1664 39.192 38.5728C40.104 37.5936 40.656 37.152 41.328 36.4608C43.416 34.4832 45.864 32.7744 48.504 31.2C48.72 31.0656 48.912 30.9504 49.128 30.8352C47.496 31.296 45.984 31.9296 44.52 32.6208Z" fill="#F7F6F6"/>
<path id="Vector_8" d="M89.9039 33.3696C89.4719 32.064 88.3439 30.4704 86.8079 28.9728C85.3439 27.3984 83.5439 25.9776 81.3359 24.9792C79.5359 24.096 77.5439 23.52 75.5039 23.04C71.9999 22.176 68.2799 21.6576 64.6079 22.0608C67.1039 22.0032 70.9919 23.0016 72.5759 23.52C73.4879 23.808 74.3039 24.0768 75.0479 24.384C73.7519 24.0192 72.3359 23.7696 71.3759 23.6544C70.1279 23.52 68.8079 23.4048 67.4639 23.4624C68.2319 23.5008 68.9759 23.616 69.7199 23.7888C70.2239 23.904 70.7999 24.0768 71.0639 24.1728C71.1119 24.192 71.0399 24.1536 71.0159 24.1344C71.5439 24.3648 72.3839 24.576 73.1279 24.9024C74.1359 25.3248 75.0719 25.8432 76.0559 26.304C78.5279 27.552 78.8399 27.7824 80.7839 28.9728C82.3439 29.9712 83.7599 31.104 85.0559 32.2944C86.2559 33.3888 86.9999 34.08 88.0799 35.5392C88.1759 35.6736 88.2719 35.8272 88.3679 35.9616C88.3439 35.8656 88.3199 35.7888 88.2959 35.6928C88.0079 34.6752 87.5759 33.696 86.9759 32.7552C86.9759 32.7552 86.9759 32.736 86.9519 32.736C87.3839 33.216 87.8159 33.696 88.2479 34.1952C88.8959 35.1168 89.3039 35.7312 89.7839 36.576C89.8559 36.672 89.9279 36.864 90.0239 37.056C90.0479 37.0944 90.1199 37.3824 90.1439 37.152C90.3119 36.6144 90.4079 36.0576 90.3839 35.5008C90.4079 34.8672 90.1919 34.2144 89.9039 33.3696Z" fill="#F7F6F6"/>
<path id="Vector_9" d="M76.224 27.8976C75.912 27.8208 75.6 27.7248 75.288 27.648C75.672 27.8016 76.056 27.9744 76.44 28.1472C79.92 29.76 83.16 31.392 85.656 33.888C83.568 31.1232 80.232 28.896 76.224 27.8976Z" fill="#F7F6F6"/>
<path id="Vector_10" d="M86.3759 27.0144C84.2639 25.1136 81.5039 23.5776 78.3839 22.7712C77.0639 22.4256 75.5519 22.1376 74.2799 21.888C75.6239 22.2144 76.9679 22.56 78.2879 22.9632C81.2399 23.808 83.7119 25.4784 85.7759 27.3984C88.1759 29.3952 89.8559 31.9488 91.6799 34.3872C90.2639 31.8528 88.5359 29.1264 86.3759 27.0144Z" fill="#F7F6F6"/>
<path id="Vector_11" d="M93.576 47.8656C93.528 47.616 93.432 47.3472 93.36 47.0976C93.36 47.1744 93.336 47.232 93.312 47.3088C93.048 48.4032 92.736 49.5168 92.28 50.592C91.704 52.0896 91.344 53.1072 90.96 54.0096C91.128 53.3376 91.248 52.608 91.296 51.84C91.464 50.4 91.512 48.9408 91.224 47.5008C91.056 46.6368 90.816 45.7344 90.24 44.9664C90.528 46.176 90.24 47.4048 90.072 48.6144C90.072 48.7296 89.76 50.304 89.4 51.1872C89.088 52.0704 88.632 52.9344 88.224 53.7984C87.24 55.6032 86.976 56.2752 86.112 58.3296C85.848 58.944 85.536 59.5392 85.248 60.1344C85.2 60.2112 85.176 60.288 85.128 60.3648C85.296 60.288 85.488 60.2112 85.656 60.1344C86.736 59.5776 87.6 58.9824 88.32 58.3488C87.36 59.6352 86.4 60.864 85.032 61.8624C88.2 60.3456 90.936 58.2336 92.304 55.5648C93.696 53.0688 94.344 50.5536 93.576 47.8656Z" fill="#F7F6F6"/>
<path id="Vector_12" d="M88.512 48.48C88.488 48.384 88.488 48.288 88.464 48.192C88.416 48.5952 88.344 48.9216 88.272 49.3248C87.96 50.8992 87.432 52.4352 86.856 53.9712C86.568 54.8544 86.064 56.064 85.68 56.736C85.2 57.5424 84.768 58.3872 84.048 59.0976C87.624 56.1408 89.064 52.4352 88.512 48.48Z" fill="#F7F6F6"/>
<path id="Vector_13" d="M86.4959 50.8032C86.1359 51.5136 85.6319 52.1856 85.2479 52.8768C84.9119 53.5104 84.6719 54.1824 84.3359 54.816C86.1359 53.8368 86.9519 52.4736 86.4959 50.8032Z" fill="#F7F6F6"/>
<path id="Vector_14" d="M94.176 53.1264C93.888 53.9136 93.504 54.7968 93.12 55.4688C92.136 57.12 90.768 58.6368 89.688 60.2496C90.648 59.2704 91.68 58.3296 92.4 57.2352C93.336 55.968 93.864 54.5664 94.224 53.1456C94.248 53.0112 94.296 52.8768 94.32 52.7424C94.272 52.8576 94.224 52.992 94.176 53.1264Z" fill="#F7F6F6"/>
<path id="Vector_15" d="M69.672 69.024C68.088 69.5616 65.256 70.1568 63.12 70.4256H63.096C63.432 70.3488 63.744 70.272 64.08 70.1952C66.096 69.696 68.088 69.0816 69.792 68.1024C70.128 67.9104 70.464 67.6992 70.8 67.4688C69.888 67.7568 68.976 68.0256 68.04 68.256C64.68 69.0624 61.248 69.6192 57.768 70.0224C55.968 70.272 54.672 70.5024 53.016 70.5408C50.952 70.5984 48.84 70.7328 46.776 70.4256C49.176 71.04 51.696 71.1552 54.216 71.2128C51.336 71.3856 48.24 71.4432 45.744 71.1552C45.384 71.0976 45.048 71.0592 44.688 70.9824C45.672 71.3664 46.632 71.7888 47.64 72.1344C49.704 72.8256 51.936 73.1136 54.168 73.2288C58.752 73.4592 63.336 72.576 67.368 70.9632C68.736 70.4256 70.032 69.792 71.232 69.0432C72.072 68.5056 72.936 67.9488 73.416 67.2C72.456 68.064 71.04 68.544 69.672 69.024Z" fill="#F7F6F6"/>
<path id="Vector_16" d="M63.1439 68.3712C60.9839 68.7744 58.7999 69.0624 56.6159 69.3696C54.5279 69.6192 52.3679 69.9072 50.0399 69.792C51.7439 70.0224 53.4719 70.0224 55.1999 69.9648C58.3439 69.9072 61.1279 69.3888 64.0079 68.2752C64.1759 68.2176 64.3439 68.1408 64.4879 68.0832C64.0559 68.1984 63.5999 68.2752 63.1439 68.3712Z" fill="#F7F6F6"/>
<path id="Vector_17" d="M60.1439 67.5072C60.0719 67.5255 59.9999 67.5255 59.9519 67.5438L60.1439 67.5072Z" fill="#F7F6F6"/>
<path id="Vector_18" d="M70.776 70.7904C69.192 71.3088 67.776 71.8272 66.48 72.2304C62.328 73.5168 57.984 74.1696 53.52 73.824C51.168 73.6896 48.84 73.2096 46.464 72.864C48.984 73.4016 51.552 73.8816 54.168 74.0736C56.16 74.208 58.176 74.1312 60.168 73.9584C61.752 73.8048 63.216 73.5936 64.8 73.2288C66.192 72.96 67.56 72.576 68.808 72C69.696 71.5968 70.56 71.136 71.352 70.6176C71.184 70.656 70.992 70.7136 70.776 70.7904Z" fill="#F7F6F6"/>
<g id="Group_6">
<path id="Vector_19" d="M34.152 64.0703L34.1762 64.0894C34.152 64.0703 34.1278 64.0513 34.152 64.0703Z" fill="#F7F6F6"/>
<path id="Vector_20" d="M34.3199 64.224L34.394 64.2803C34.3693 64.2803 34.3446 64.2428 34.3199 64.224Z" fill="#F7F6F6"/>
<path id="Vector_21" d="M35.5439 65.5104C35.1839 65.088 34.7999 64.6656 34.3919 64.2816C34.3679 64.2624 34.3439 64.2432 34.3199 64.224C34.2719 64.1664 34.2719 64.1856 34.3199 64.2048C34.3199 64.2048 34.3199 64.2048 34.3199 64.224C34.2959 64.2048 34.2239 64.128 34.1999 64.1088C34.1999 64.1088 34.1999 64.0896 34.1759 64.0896C33.7679 63.6864 33.3359 63.2832 32.9039 62.8992C32.8319 62.8416 32.7599 62.784 32.6879 62.7072C32.6159 63.264 32.6639 63.8208 32.8319 64.3584C33.2639 65.856 35.0639 67.104 37.1039 67.1808C36.4799 66.7392 36.0719 66.0864 35.5439 65.5104Z" fill="#F7F6F6"/>
<path id="Vector_22" d="M34.392 64.3008C34.4177 64.3191 34.4177 64.3374 34.392 64.3008V64.3008Z" fill="#F7F6F6"/>
<path id="Vector_23" d="M34.1775 64.1071C34.2022 64.1071 34.2022 64.1071 34.1775 64.1071C34.0787 63.9756 34.1281 64.0319 34.1775 64.1071Z" fill="#F7F6F6"/>
</g>
<path id="Vector_24" d="M35.6399 64.0512C35.0639 63.5136 34.3679 63.0528 33.7439 62.5344C33.9119 64.0896 35.1839 65.4336 37.1519 65.9712C36.7439 65.2992 36.2639 64.6272 35.6399 64.0512Z" fill="#F7F6F6"/>
<g id="Group_7">
<path id="Vector_25" d="M36.3359 63.4176L36.3602 63.4364C36.4086 63.4927 36.4086 63.4927 36.3359 63.4176Z" fill="#F7F6F6"/>
<path id="Vector_26" d="M36.36 63.4368C36.36 63.4176 36.336 63.4176 36.312 63.3984C35.904 62.976 35.328 62.6688 34.896 62.2656C34.896 63.7056 35.928 64.3392 37.416 64.7424C36.96 64.2816 36.84 63.8976 36.36 63.4368Z" fill="#F7F6F6"/>
</g>
<path id="Vector_27" d="M36.1919 62.4576C36.3119 62.7264 36.5279 62.9568 36.8399 63.1104C36.6959 62.8608 36.4799 62.6496 36.1919 62.4576Z" fill="#F7F6F6"/>
<path id="Vector_28" d="M31.7279 63.9744C32.2319 65.472 33.2399 67.008 35.1599 67.7184C33.5039 66.7776 32.6399 65.376 31.7279 63.9744Z" fill="#F7F6F6"/>
<path id="Vector_29" d="M76.0079 29.3184C77.1359 29.7792 77.8799 30.6048 78.8639 31.2C80.1839 32.1216 81.3839 32.7168 82.4879 33.7344C81.2879 31.2384 79.7759 29.7792 76.0079 29.3184Z" fill="#F7F6F6"/>
<path id="Vector_30" d="M77.3519 31.8912C77.6639 32.1792 77.9999 32.4672 78.4079 32.6784C78.1679 32.352 77.8079 32.0448 77.3519 31.8912Z" fill="#F7F6F6"/>
<path id="Vector_31" d="M83.9039 53.1648C84.1439 52.992 84.2399 52.7424 84.2399 52.4928C84.0479 52.6848 83.9039 52.9152 83.9039 53.1648Z" fill="#F7F6F6"/>
<path id="Vector_32" d="M56.736 67.2C55.728 67.2768 54.768 67.5648 53.808 67.7952C55.728 68.5632 58.152 68.4096 59.592 67.104C58.632 67.2 57.672 67.0848 56.736 67.2Z" fill="#F7F6F6"/>
<path id="Vector_33" d="M55.464 65.568C55.944 65.7984 56.568 65.7984 57.048 65.5488C56.448 65.4144 56.016 65.4528 55.464 65.568Z" fill="#F7F6F6"/>
<path id="Vector_34" d="M38.3519 41.4912C37.4879 42.5664 37.4159 43.9104 37.8479 45.12C37.8959 44.832 38.0639 44.3712 38.1599 44.2176C38.7839 43.3344 39.4319 42.4512 39.7919 41.472C40.0319 40.8576 40.2479 40.2432 40.4639 39.6288C39.6239 40.1472 38.9039 40.7808 38.3519 41.4912Z" fill="#F7F6F6"/>
<path id="Vector_35" d="M41.2559 41.9904C40.5839 42.5472 40.2959 43.3152 40.6079 44.0448C41.1119 43.3536 41.3039 42.7968 41.2559 41.9904Z" fill="#F7F6F6"/>
</g>
</g>
</g>
</g>
</g>
<defs>
<clipPath id="clip0_1668_1370">
<rect width="120" height="96" rx="8" fill="white"/>
</clipPath>
</defs>
</svg>
